<mxfile host="app.diagrams.net" agent="Mozilla/5.0 (Windows NT 10.0; Win64; x64) AppleWebKit/537.36 (KHTML, like Gecko) Chrome/128.0.0.0 Safari/537.36 OPR/114.0.0.0 (Edition Yx GX)" version="24.8.4">
  <diagram name="Страница — 1" id="8St4k04jl7ZQK03nlDWy">
    <mxGraphModel dx="1936" dy="1101" grid="1" gridSize="10" guides="1" tooltips="1" connect="1" arrows="1" fold="1" page="1" pageScale="1" pageWidth="827" pageHeight="1169" math="0" shadow="0">
      <root>
        <mxCell id="0" />
        <mxCell id="1" parent="0" />
        <mxCell id="-J7KAMG5AFS08Yon-naJ-1" value="" style="edgeStyle=orthogonalEdgeStyle;rounded=0;orthogonalLoop=1;jettySize=auto;html=1;" parent="1" source="-J7KAMG5AFS08Yon-naJ-2" target="-J7KAMG5AFS08Yon-naJ-4" edge="1">
          <mxGeometry relative="1" as="geometry" />
        </mxCell>
        <mxCell id="-J7KAMG5AFS08Yon-naJ-2" value="Начало" style="ellipse;whiteSpace=wrap;html=1;" parent="1" vertex="1">
          <mxGeometry x="354" y="100" width="120" height="80" as="geometry" />
        </mxCell>
        <mxCell id="-J7KAMG5AFS08Yon-naJ-21" value="" style="edgeStyle=orthogonalEdgeStyle;rounded=0;orthogonalLoop=1;jettySize=auto;html=1;" parent="1" source="-J7KAMG5AFS08Yon-naJ-4" target="-J7KAMG5AFS08Yon-naJ-19" edge="1">
          <mxGeometry relative="1" as="geometry" />
        </mxCell>
        <mxCell id="-J7KAMG5AFS08Yon-naJ-4" value="объявляем массив с размерностями тестовых данных&lt;div&gt;инициализируем рандом зерно&lt;/div&gt;" style="rounded=0;whiteSpace=wrap;html=1;" parent="1" vertex="1">
          <mxGeometry x="326" y="220" width="176" height="100" as="geometry" />
        </mxCell>
        <mxCell id="-J7KAMG5AFS08Yon-naJ-5" value="" style="edgeStyle=orthogonalEdgeStyle;rounded=0;orthogonalLoop=1;jettySize=auto;html=1;" parent="1" source="-J7KAMG5AFS08Yon-naJ-7" target="-J7KAMG5AFS08Yon-naJ-9" edge="1">
          <mxGeometry relative="1" as="geometry" />
        </mxCell>
        <mxCell id="-J7KAMG5AFS08Yon-naJ-6" style="edgeStyle=orthogonalEdgeStyle;rounded=0;orthogonalLoop=1;jettySize=auto;html=1;" parent="1" source="-J7KAMG5AFS08Yon-naJ-7" target="-J7KAMG5AFS08Yon-naJ-16" edge="1">
          <mxGeometry relative="1" as="geometry" />
        </mxCell>
        <mxCell id="-J7KAMG5AFS08Yon-naJ-7" value="перебор всех размерностей тестовых данных" style="shape=hexagon;perimeter=hexagonPerimeter2;whiteSpace=wrap;html=1;fixedSize=1;" parent="1" vertex="1">
          <mxGeometry x="274" y="755" width="280" height="50" as="geometry" />
        </mxCell>
        <mxCell id="-J7KAMG5AFS08Yon-naJ-8" value="" style="edgeStyle=orthogonalEdgeStyle;rounded=0;orthogonalLoop=1;jettySize=auto;html=1;" parent="1" source="-J7KAMG5AFS08Yon-naJ-9" target="-J7KAMG5AFS08Yon-naJ-11" edge="1">
          <mxGeometry relative="1" as="geometry" />
        </mxCell>
        <mxCell id="-J7KAMG5AFS08Yon-naJ-9" value="Генерируем массив текущей размерности" style="shape=process;whiteSpace=wrap;html=1;backgroundOutline=1;" parent="1" vertex="1">
          <mxGeometry x="296" y="845" width="236" height="60" as="geometry" />
        </mxCell>
        <mxCell id="-J7KAMG5AFS08Yon-naJ-10" value="" style="edgeStyle=orthogonalEdgeStyle;rounded=0;orthogonalLoop=1;jettySize=auto;html=1;" parent="1" source="-J7KAMG5AFS08Yon-naJ-11" target="-J7KAMG5AFS08Yon-naJ-13" edge="1">
          <mxGeometry relative="1" as="geometry" />
        </mxCell>
        <mxCell id="-J7KAMG5AFS08Yon-naJ-11" value="применяем алгоритмы сортировки и сохраняем результаты в файл" style="shape=process;whiteSpace=wrap;html=1;backgroundOutline=1;" parent="1" vertex="1">
          <mxGeometry x="296" y="955" width="236" height="60" as="geometry" />
        </mxCell>
        <mxCell id="-J7KAMG5AFS08Yon-naJ-30" value="" style="edgeStyle=orthogonalEdgeStyle;rounded=0;orthogonalLoop=1;jettySize=auto;html=1;" parent="1" source="-J7KAMG5AFS08Yon-naJ-13" target="-J7KAMG5AFS08Yon-naJ-28" edge="1">
          <mxGeometry relative="1" as="geometry" />
        </mxCell>
        <mxCell id="-J7KAMG5AFS08Yon-naJ-13" value="сортируем множество по убыванию" style="shape=process;whiteSpace=wrap;html=1;backgroundOutline=1;" parent="1" vertex="1">
          <mxGeometry x="296" y="1065" width="236" height="60" as="geometry" />
        </mxCell>
        <mxCell id="-J7KAMG5AFS08Yon-naJ-16" value="Конец" style="ellipse;whiteSpace=wrap;html=1;" parent="1" vertex="1">
          <mxGeometry x="690" y="740" width="120" height="80" as="geometry" />
        </mxCell>
        <mxCell id="-J7KAMG5AFS08Yon-naJ-17" value="Размерности&amp;nbsp;&lt;div&gt;закончились&lt;/div&gt;" style="text;html=1;align=center;verticalAlign=middle;resizable=0;points=[];autosize=1;strokeColor=none;fillColor=none;" parent="1" vertex="1">
          <mxGeometry x="560" y="740" width="100" height="40" as="geometry" />
        </mxCell>
        <mxCell id="-J7KAMG5AFS08Yon-naJ-23" value="" style="edgeStyle=orthogonalEdgeStyle;rounded=0;orthogonalLoop=1;jettySize=auto;html=1;" parent="1" source="-J7KAMG5AFS08Yon-naJ-19" target="-J7KAMG5AFS08Yon-naJ-22" edge="1">
          <mxGeometry relative="1" as="geometry" />
        </mxCell>
        <mxCell id="-J7KAMG5AFS08Yon-naJ-19" value="Генерируем массив c размерностью 15 для сортировки по шагам" style="shape=process;whiteSpace=wrap;html=1;backgroundOutline=1;" parent="1" vertex="1">
          <mxGeometry x="296" y="370" width="236" height="60" as="geometry" />
        </mxCell>
        <mxCell id="-J7KAMG5AFS08Yon-naJ-25" value="" style="edgeStyle=orthogonalEdgeStyle;rounded=0;orthogonalLoop=1;jettySize=auto;html=1;" parent="1" source="-J7KAMG5AFS08Yon-naJ-22" target="-J7KAMG5AFS08Yon-naJ-24" edge="1">
          <mxGeometry relative="1" as="geometry" />
        </mxCell>
        <mxCell id="-J7KAMG5AFS08Yon-naJ-27" style="edgeStyle=orthogonalEdgeStyle;rounded=0;orthogonalLoop=1;jettySize=auto;html=1;entryX=0.5;entryY=0;entryDx=0;entryDy=0;" parent="1" source="-J7KAMG5AFS08Yon-naJ-22" target="-J7KAMG5AFS08Yon-naJ-7" edge="1">
          <mxGeometry relative="1" as="geometry">
            <Array as="points">
              <mxPoint x="610" y="505" />
              <mxPoint x="610" y="680" />
              <mxPoint x="414" y="680" />
              <mxPoint x="414" y="755" />
            </Array>
          </mxGeometry>
        </mxCell>
        <mxCell id="-J7KAMG5AFS08Yon-naJ-22" value="перебор всех алгоритмов сортировки с описанием шагов" style="shape=hexagon;perimeter=hexagonPerimeter2;whiteSpace=wrap;html=1;fixedSize=1;" parent="1" vertex="1">
          <mxGeometry x="274" y="480" width="280" height="50" as="geometry" />
        </mxCell>
        <mxCell id="-J7KAMG5AFS08Yon-naJ-26" style="edgeStyle=orthogonalEdgeStyle;rounded=0;orthogonalLoop=1;jettySize=auto;html=1;entryX=0;entryY=0.5;entryDx=0;entryDy=0;" parent="1" source="-J7KAMG5AFS08Yon-naJ-24" target="-J7KAMG5AFS08Yon-naJ-22" edge="1">
          <mxGeometry relative="1" as="geometry">
            <Array as="points">
              <mxPoint x="414" y="660" />
              <mxPoint x="254" y="660" />
              <mxPoint x="254" y="505" />
            </Array>
          </mxGeometry>
        </mxCell>
        <mxCell id="-J7KAMG5AFS08Yon-naJ-24" value="Применяем текущий алгоритм сортировки" style="shape=process;whiteSpace=wrap;html=1;backgroundOutline=1;" parent="1" vertex="1">
          <mxGeometry x="296" y="570" width="236" height="60" as="geometry" />
        </mxCell>
        <mxCell id="-J7KAMG5AFS08Yon-naJ-32" value="" style="edgeStyle=orthogonalEdgeStyle;rounded=0;orthogonalLoop=1;jettySize=auto;html=1;" parent="1" source="-J7KAMG5AFS08Yon-naJ-28" target="-J7KAMG5AFS08Yon-naJ-29" edge="1">
          <mxGeometry relative="1" as="geometry" />
        </mxCell>
        <mxCell id="-J7KAMG5AFS08Yon-naJ-28" value="осуществляем сортировку и сохраняем результаты в файл" style="shape=process;whiteSpace=wrap;html=1;backgroundOutline=1;" parent="1" vertex="1">
          <mxGeometry x="296" y="1180" width="236" height="60" as="geometry" />
        </mxCell>
        <mxCell id="-J7KAMG5AFS08Yon-naJ-34" value="" style="edgeStyle=orthogonalEdgeStyle;rounded=0;orthogonalLoop=1;jettySize=auto;html=1;" parent="1" source="-J7KAMG5AFS08Yon-naJ-29" target="-J7KAMG5AFS08Yon-naJ-33" edge="1">
          <mxGeometry relative="1" as="geometry" />
        </mxCell>
        <mxCell id="-J7KAMG5AFS08Yon-naJ-29" value="сортируем множество по возрастанию" style="shape=process;whiteSpace=wrap;html=1;backgroundOutline=1;" parent="1" vertex="1">
          <mxGeometry x="296" y="1300" width="236" height="60" as="geometry" />
        </mxCell>
        <mxCell id="-J7KAMG5AFS08Yon-naJ-35" style="edgeStyle=orthogonalEdgeStyle;rounded=0;orthogonalLoop=1;jettySize=auto;html=1;entryX=0;entryY=0.5;entryDx=0;entryDy=0;" parent="1" source="-J7KAMG5AFS08Yon-naJ-33" target="-J7KAMG5AFS08Yon-naJ-7" edge="1">
          <mxGeometry relative="1" as="geometry">
            <Array as="points">
              <mxPoint x="414" y="1520" />
              <mxPoint x="240" y="1520" />
              <mxPoint x="240" y="780" />
            </Array>
          </mxGeometry>
        </mxCell>
        <mxCell id="-J7KAMG5AFS08Yon-naJ-33" value="применяем алгоритмы сортировки и сохраняем результаты в файл" style="shape=process;whiteSpace=wrap;html=1;backgroundOutline=1;" parent="1" vertex="1">
          <mxGeometry x="296" y="1420" width="236" height="60" as="geometry" />
        </mxCell>
        <mxCell id="wjAHZ8HdF4BPP9_hHngu-1" value="" style="edgeStyle=orthogonalEdgeStyle;rounded=0;orthogonalLoop=1;jettySize=auto;html=1;" parent="1" source="wjAHZ8HdF4BPP9_hHngu-2" target="wjAHZ8HdF4BPP9_hHngu-5" edge="1">
          <mxGeometry relative="1" as="geometry" />
        </mxCell>
        <mxCell id="wjAHZ8HdF4BPP9_hHngu-2" value="Начало" style="ellipse;whiteSpace=wrap;html=1;" parent="1" vertex="1">
          <mxGeometry x="1250" y="100" width="120" height="80" as="geometry" />
        </mxCell>
        <mxCell id="wjAHZ8HdF4BPP9_hHngu-3" value="generate_array" style="text;html=1;align=center;verticalAlign=middle;resizable=0;points=[];autosize=1;strokeColor=none;fillColor=none;" parent="1" vertex="1">
          <mxGeometry x="1260" y="40" width="100" height="30" as="geometry" />
        </mxCell>
        <mxCell id="wjAHZ8HdF4BPP9_hHngu-4" value="" style="edgeStyle=orthogonalEdgeStyle;rounded=0;orthogonalLoop=1;jettySize=auto;html=1;" parent="1" source="wjAHZ8HdF4BPP9_hHngu-5" target="wjAHZ8HdF4BPP9_hHngu-7" edge="1">
          <mxGeometry relative="1" as="geometry" />
        </mxCell>
        <mxCell id="wjAHZ8HdF4BPP9_hHngu-5" value="инициализируем рандомайзер для целых чисел с учетом минимального и максимального значения (указываем диапазон)" style="rounded=0;whiteSpace=wrap;html=1;" parent="1" vertex="1">
          <mxGeometry x="1222" y="210" width="176" height="100" as="geometry" />
        </mxCell>
        <mxCell id="wjAHZ8HdF4BPP9_hHngu-6" value="" style="edgeStyle=orthogonalEdgeStyle;rounded=0;orthogonalLoop=1;jettySize=auto;html=1;" parent="1" source="wjAHZ8HdF4BPP9_hHngu-7" target="wjAHZ8HdF4BPP9_hHngu-8" edge="1">
          <mxGeometry relative="1" as="geometry" />
        </mxCell>
        <mxCell id="wjAHZ8HdF4BPP9_hHngu-7" value="Используем стандартную функцию generate для заполнения массива случайными числами с учетом зерна" style="shape=process;whiteSpace=wrap;html=1;backgroundOutline=1;" parent="1" vertex="1">
          <mxGeometry x="1192" y="360" width="236" height="70" as="geometry" />
        </mxCell>
        <mxCell id="wjAHZ8HdF4BPP9_hHngu-8" value="Вернуть массив" style="ellipse;whiteSpace=wrap;html=1;" parent="1" vertex="1">
          <mxGeometry x="1250" y="480" width="120" height="80" as="geometry" />
        </mxCell>
        <mxCell id="wjAHZ8HdF4BPP9_hHngu-35" value="" style="edgeStyle=orthogonalEdgeStyle;rounded=0;orthogonalLoop=1;jettySize=auto;html=1;" parent="1" source="wjAHZ8HdF4BPP9_hHngu-10" target="wjAHZ8HdF4BPP9_hHngu-15" edge="1">
          <mxGeometry relative="1" as="geometry" />
        </mxCell>
        <mxCell id="wjAHZ8HdF4BPP9_hHngu-10" value="Начало" style="ellipse;whiteSpace=wrap;html=1;" parent="1" vertex="1">
          <mxGeometry x="1909.96" y="80" width="120" height="80" as="geometry" />
        </mxCell>
        <mxCell id="wjAHZ8HdF4BPP9_hHngu-11" value="perform_sorting_and_save" style="text;whiteSpace=wrap;align=center;" parent="1" vertex="1">
          <mxGeometry x="1878" y="40" width="190" height="40" as="geometry" />
        </mxCell>
        <mxCell id="wjAHZ8HdF4BPP9_hHngu-14" value="" style="edgeStyle=orthogonalEdgeStyle;rounded=0;orthogonalLoop=1;jettySize=auto;html=1;" parent="1" source="wjAHZ8HdF4BPP9_hHngu-15" target="wjAHZ8HdF4BPP9_hHngu-18" edge="1">
          <mxGeometry relative="1" as="geometry" />
        </mxCell>
        <mxCell id="wjAHZ8HdF4BPP9_hHngu-15" value="Создать директорию для записи результатов текущего теста" style="rounded=0;whiteSpace=wrap;html=1;" parent="1" vertex="1">
          <mxGeometry x="1881.96" y="200" width="176" height="100" as="geometry" />
        </mxCell>
        <mxCell id="wjAHZ8HdF4BPP9_hHngu-17" style="edgeStyle=orthogonalEdgeStyle;rounded=0;orthogonalLoop=1;jettySize=auto;html=1;" parent="1" source="wjAHZ8HdF4BPP9_hHngu-18" target="wjAHZ8HdF4BPP9_hHngu-31" edge="1">
          <mxGeometry relative="1" as="geometry" />
        </mxCell>
        <mxCell id="wjAHZ8HdF4BPP9_hHngu-33" value="" style="edgeStyle=orthogonalEdgeStyle;rounded=0;orthogonalLoop=1;jettySize=auto;html=1;" parent="1" source="wjAHZ8HdF4BPP9_hHngu-18" target="wjAHZ8HdF4BPP9_hHngu-27" edge="1">
          <mxGeometry relative="1" as="geometry" />
        </mxCell>
        <mxCell id="wjAHZ8HdF4BPP9_hHngu-18" value="Перебор возможных методов сортировки" style="shape=hexagon;perimeter=hexagonPerimeter2;whiteSpace=wrap;html=1;fixedSize=1;" parent="1" vertex="1">
          <mxGeometry x="1829.96" y="335" width="280" height="50" as="geometry" />
        </mxCell>
        <mxCell id="wjAHZ8HdF4BPP9_hHngu-26" value="" style="edgeStyle=orthogonalEdgeStyle;rounded=0;orthogonalLoop=1;jettySize=auto;html=1;" parent="1" source="wjAHZ8HdF4BPP9_hHngu-27" target="wjAHZ8HdF4BPP9_hHngu-29" edge="1">
          <mxGeometry relative="1" as="geometry" />
        </mxCell>
        <mxCell id="wjAHZ8HdF4BPP9_hHngu-27" value="Применяем текущий алгоритм сортировки" style="shape=process;whiteSpace=wrap;html=1;backgroundOutline=1;" parent="1" vertex="1">
          <mxGeometry x="1851.96" y="425" width="236" height="70" as="geometry" />
        </mxCell>
        <mxCell id="wjAHZ8HdF4BPP9_hHngu-34" style="edgeStyle=orthogonalEdgeStyle;rounded=0;orthogonalLoop=1;jettySize=auto;html=1;entryX=0;entryY=0.5;entryDx=0;entryDy=0;" parent="1" source="wjAHZ8HdF4BPP9_hHngu-29" target="wjAHZ8HdF4BPP9_hHngu-18" edge="1">
          <mxGeometry relative="1" as="geometry">
            <Array as="points">
              <mxPoint x="1969.96" y="645" />
              <mxPoint x="1809.96" y="645" />
              <mxPoint x="1809.96" y="360" />
            </Array>
          </mxGeometry>
        </mxCell>
        <mxCell id="wjAHZ8HdF4BPP9_hHngu-29" value="Записываем результаты&amp;nbsp;&lt;div&gt;измерений в файл&lt;br&gt;&lt;/div&gt;" style="shape=parallelogram;perimeter=parallelogramPerimeter;whiteSpace=wrap;html=1;fixedSize=1;" parent="1" vertex="1">
          <mxGeometry x="1866.46" y="535" width="207" height="60" as="geometry" />
        </mxCell>
        <mxCell id="wjAHZ8HdF4BPP9_hHngu-31" value="Конец" style="ellipse;whiteSpace=wrap;html=1;" parent="1" vertex="1">
          <mxGeometry x="2266.96" y="320" width="120" height="80" as="geometry" />
        </mxCell>
        <mxCell id="wjAHZ8HdF4BPP9_hHngu-32" value="Возможные методы&amp;nbsp;&lt;div&gt;сортировки закончились&lt;/div&gt;" style="text;html=1;align=center;verticalAlign=middle;resizable=0;points=[];autosize=1;strokeColor=none;fillColor=none;" parent="1" vertex="1">
          <mxGeometry x="2100" y="310" width="160" height="40" as="geometry" />
        </mxCell>
        <mxCell id="wjAHZ8HdF4BPP9_hHngu-43" value="quick_sort_hoare" style="text;whiteSpace=wrap;align=center;" parent="1" vertex="1">
          <mxGeometry x="2680" y="40" width="190" height="40" as="geometry" />
        </mxCell>
        <mxCell id="wjAHZ8HdF4BPP9_hHngu-47" value="" style="edgeStyle=orthogonalEdgeStyle;rounded=0;orthogonalLoop=1;jettySize=auto;html=1;" parent="1" source="wjAHZ8HdF4BPP9_hHngu-44" target="wjAHZ8HdF4BPP9_hHngu-45" edge="1">
          <mxGeometry relative="1" as="geometry" />
        </mxCell>
        <mxCell id="wjAHZ8HdF4BPP9_hHngu-44" value="Начало" style="ellipse;whiteSpace=wrap;html=1;" parent="1" vertex="1">
          <mxGeometry x="2715" y="80" width="120" height="80" as="geometry" />
        </mxCell>
        <mxCell id="wjAHZ8HdF4BPP9_hHngu-49" value="" style="edgeStyle=orthogonalEdgeStyle;rounded=0;orthogonalLoop=1;jettySize=auto;html=1;" parent="1" source="wjAHZ8HdF4BPP9_hHngu-45" target="wjAHZ8HdF4BPP9_hHngu-48" edge="1">
          <mxGeometry relative="1" as="geometry" />
        </mxCell>
        <mxCell id="wjAHZ8HdF4BPP9_hHngu-45" value="Инициализируем стек для хранения пар верхнего/нижнего индексов.&lt;div&gt;Помещаем в стек 0 и len-1 индексы&lt;/div&gt;" style="rounded=0;whiteSpace=wrap;html=1;" parent="1" vertex="1">
          <mxGeometry x="2687" y="190" width="176" height="100" as="geometry" />
        </mxCell>
        <mxCell id="wjAHZ8HdF4BPP9_hHngu-51" value="" style="edgeStyle=orthogonalEdgeStyle;rounded=0;orthogonalLoop=1;jettySize=auto;html=1;" parent="1" source="wjAHZ8HdF4BPP9_hHngu-48" target="wjAHZ8HdF4BPP9_hHngu-50" edge="1">
          <mxGeometry relative="1" as="geometry" />
        </mxCell>
        <mxCell id="wjAHZ8HdF4BPP9_hHngu-207" value="" style="edgeStyle=orthogonalEdgeStyle;rounded=0;orthogonalLoop=1;jettySize=auto;html=1;" parent="1" source="wjAHZ8HdF4BPP9_hHngu-48" target="wjAHZ8HdF4BPP9_hHngu-206" edge="1">
          <mxGeometry relative="1" as="geometry" />
        </mxCell>
        <mxCell id="wjAHZ8HdF4BPP9_hHngu-48" value="Стек не пуст" style="rhombus;whiteSpace=wrap;html=1;" parent="1" vertex="1">
          <mxGeometry x="2687" y="352.5" width="178" height="95" as="geometry" />
        </mxCell>
        <mxCell id="wjAHZ8HdF4BPP9_hHngu-55" value="" style="edgeStyle=orthogonalEdgeStyle;rounded=0;orthogonalLoop=1;jettySize=auto;html=1;" parent="1" source="wjAHZ8HdF4BPP9_hHngu-50" target="wjAHZ8HdF4BPP9_hHngu-52" edge="1">
          <mxGeometry relative="1" as="geometry" />
        </mxCell>
        <mxCell id="wjAHZ8HdF4BPP9_hHngu-50" value="Извлекаем из стека пару индексов (high, low)" style="rounded=0;whiteSpace=wrap;html=1;" parent="1" vertex="1">
          <mxGeometry x="2688" y="485" width="176" height="100" as="geometry" />
        </mxCell>
        <mxCell id="wjAHZ8HdF4BPP9_hHngu-53" style="edgeStyle=orthogonalEdgeStyle;rounded=0;orthogonalLoop=1;jettySize=auto;html=1;entryX=0;entryY=0.5;entryDx=0;entryDy=0;" parent="1" source="wjAHZ8HdF4BPP9_hHngu-52" target="wjAHZ8HdF4BPP9_hHngu-48" edge="1">
          <mxGeometry relative="1" as="geometry">
            <Array as="points">
              <mxPoint x="2776" y="770" />
              <mxPoint x="2640" y="770" />
              <mxPoint x="2640" y="400" />
            </Array>
          </mxGeometry>
        </mxCell>
        <mxCell id="wjAHZ8HdF4BPP9_hHngu-56" style="edgeStyle=orthogonalEdgeStyle;rounded=0;orthogonalLoop=1;jettySize=auto;html=1;entryX=0.5;entryY=0;entryDx=0;entryDy=0;" parent="1" source="wjAHZ8HdF4BPP9_hHngu-52" target="wjAHZ8HdF4BPP9_hHngu-58" edge="1">
          <mxGeometry relative="1" as="geometry">
            <mxPoint x="2776" y="850" as="targetPoint" />
            <Array as="points">
              <mxPoint x="2890" y="680" />
              <mxPoint x="2890" y="810" />
              <mxPoint x="2776" y="810" />
            </Array>
          </mxGeometry>
        </mxCell>
        <mxCell id="wjAHZ8HdF4BPP9_hHngu-52" value="low &amp;gt;= high" style="rhombus;whiteSpace=wrap;html=1;" parent="1" vertex="1">
          <mxGeometry x="2687" y="633" width="178" height="95" as="geometry" />
        </mxCell>
        <mxCell id="wjAHZ8HdF4BPP9_hHngu-54" value="Да" style="text;html=1;align=center;verticalAlign=middle;resizable=0;points=[];autosize=1;strokeColor=none;fillColor=none;" parent="1" vertex="1">
          <mxGeometry x="2730" y="728" width="40" height="30" as="geometry" />
        </mxCell>
        <mxCell id="wjAHZ8HdF4BPP9_hHngu-57" value="Нет" style="text;html=1;align=center;verticalAlign=middle;resizable=0;points=[];autosize=1;strokeColor=none;fillColor=none;" parent="1" vertex="1">
          <mxGeometry x="2863" y="650" width="40" height="30" as="geometry" />
        </mxCell>
        <mxCell id="wjAHZ8HdF4BPP9_hHngu-61" value="" style="edgeStyle=orthogonalEdgeStyle;rounded=0;orthogonalLoop=1;jettySize=auto;html=1;" parent="1" source="wjAHZ8HdF4BPP9_hHngu-58" target="wjAHZ8HdF4BPP9_hHngu-60" edge="1">
          <mxGeometry relative="1" as="geometry" />
        </mxCell>
        <mxCell id="wjAHZ8HdF4BPP9_hHngu-58" value="&lt;div&gt;int pivot = array[low_i];&lt;/div&gt;&lt;div&gt;int i = low_i - 1, j = high_i + 1;&lt;/div&gt;" style="rounded=0;whiteSpace=wrap;html=1;align=left;" parent="1" vertex="1">
          <mxGeometry x="2689" y="845" width="176" height="100" as="geometry" />
        </mxCell>
        <mxCell id="wjAHZ8HdF4BPP9_hHngu-59" value="Да" style="text;html=1;align=center;verticalAlign=middle;resizable=0;points=[];autosize=1;strokeColor=none;fillColor=none;" parent="1" vertex="1">
          <mxGeometry x="2780" y="438" width="40" height="30" as="geometry" />
        </mxCell>
        <mxCell id="wjAHZ8HdF4BPP9_hHngu-68" value="" style="edgeStyle=orthogonalEdgeStyle;rounded=0;orthogonalLoop=1;jettySize=auto;html=1;" parent="1" source="wjAHZ8HdF4BPP9_hHngu-60" target="wjAHZ8HdF4BPP9_hHngu-62" edge="1">
          <mxGeometry relative="1" as="geometry" />
        </mxCell>
        <mxCell id="wjAHZ8HdF4BPP9_hHngu-60" value="Бесконечный while" style="rhombus;whiteSpace=wrap;html=1;" parent="1" vertex="1">
          <mxGeometry x="2688" y="1000" width="178" height="95" as="geometry" />
        </mxCell>
        <mxCell id="wjAHZ8HdF4BPP9_hHngu-65" value="" style="edgeStyle=orthogonalEdgeStyle;rounded=0;orthogonalLoop=1;jettySize=auto;html=1;" parent="1" source="wjAHZ8HdF4BPP9_hHngu-62" target="wjAHZ8HdF4BPP9_hHngu-64" edge="1">
          <mxGeometry relative="1" as="geometry" />
        </mxCell>
        <mxCell id="wjAHZ8HdF4BPP9_hHngu-75" style="edgeStyle=orthogonalEdgeStyle;rounded=0;orthogonalLoop=1;jettySize=auto;html=1;entryX=0.5;entryY=0;entryDx=0;entryDy=0;" parent="1" source="wjAHZ8HdF4BPP9_hHngu-62" target="wjAHZ8HdF4BPP9_hHngu-71" edge="1">
          <mxGeometry relative="1" as="geometry" />
        </mxCell>
        <mxCell id="wjAHZ8HdF4BPP9_hHngu-62" value="i-й элемент &amp;lt; опорного" style="rhombus;whiteSpace=wrap;html=1;" parent="1" vertex="1">
          <mxGeometry x="2688" y="1140" width="178" height="95" as="geometry" />
        </mxCell>
        <mxCell id="wjAHZ8HdF4BPP9_hHngu-66" style="edgeStyle=orthogonalEdgeStyle;rounded=0;orthogonalLoop=1;jettySize=auto;html=1;entryX=0;entryY=0.5;entryDx=0;entryDy=0;" parent="1" source="wjAHZ8HdF4BPP9_hHngu-64" target="wjAHZ8HdF4BPP9_hHngu-62" edge="1">
          <mxGeometry relative="1" as="geometry">
            <Array as="points">
              <mxPoint x="2778" y="1390" />
              <mxPoint x="2660" y="1390" />
              <mxPoint x="2660" y="1188" />
            </Array>
          </mxGeometry>
        </mxCell>
        <mxCell id="wjAHZ8HdF4BPP9_hHngu-64" value="i++" style="rounded=0;whiteSpace=wrap;html=1;" parent="1" vertex="1">
          <mxGeometry x="2690" y="1270" width="176" height="100" as="geometry" />
        </mxCell>
        <mxCell id="wjAHZ8HdF4BPP9_hHngu-67" value="Да" style="text;html=1;align=center;verticalAlign=middle;resizable=0;points=[];autosize=1;strokeColor=none;fillColor=none;" parent="1" vertex="1">
          <mxGeometry x="2780" y="1235" width="40" height="30" as="geometry" />
        </mxCell>
        <mxCell id="wjAHZ8HdF4BPP9_hHngu-70" value="" style="edgeStyle=orthogonalEdgeStyle;rounded=0;orthogonalLoop=1;jettySize=auto;html=1;" parent="1" source="wjAHZ8HdF4BPP9_hHngu-71" target="wjAHZ8HdF4BPP9_hHngu-73" edge="1">
          <mxGeometry relative="1" as="geometry" />
        </mxCell>
        <mxCell id="wjAHZ8HdF4BPP9_hHngu-78" style="edgeStyle=orthogonalEdgeStyle;rounded=0;orthogonalLoop=1;jettySize=auto;html=1;" parent="1" source="wjAHZ8HdF4BPP9_hHngu-71" edge="1">
          <mxGeometry relative="1" as="geometry">
            <mxPoint x="2780" y="1580" as="targetPoint" />
            <Array as="points">
              <mxPoint x="3221" y="1262" />
              <mxPoint x="3221" y="1550" />
            </Array>
          </mxGeometry>
        </mxCell>
        <mxCell id="wjAHZ8HdF4BPP9_hHngu-71" value="j-й элемент &amp;gt; опорного" style="rhombus;whiteSpace=wrap;html=1;" parent="1" vertex="1">
          <mxGeometry x="2978" y="1214" width="178" height="95" as="geometry" />
        </mxCell>
        <mxCell id="wjAHZ8HdF4BPP9_hHngu-72" style="edgeStyle=orthogonalEdgeStyle;rounded=0;orthogonalLoop=1;jettySize=auto;html=1;entryX=0;entryY=0.5;entryDx=0;entryDy=0;" parent="1" source="wjAHZ8HdF4BPP9_hHngu-73" target="wjAHZ8HdF4BPP9_hHngu-71" edge="1">
          <mxGeometry relative="1" as="geometry">
            <Array as="points">
              <mxPoint x="3068" y="1464" />
              <mxPoint x="2950" y="1464" />
              <mxPoint x="2950" y="1262" />
            </Array>
          </mxGeometry>
        </mxCell>
        <mxCell id="wjAHZ8HdF4BPP9_hHngu-73" value="j--" style="rounded=0;whiteSpace=wrap;html=1;" parent="1" vertex="1">
          <mxGeometry x="2980" y="1344" width="176" height="100" as="geometry" />
        </mxCell>
        <mxCell id="wjAHZ8HdF4BPP9_hHngu-74" value="Да" style="text;html=1;align=center;verticalAlign=middle;resizable=0;points=[];autosize=1;strokeColor=none;fillColor=none;" parent="1" vertex="1">
          <mxGeometry x="3070" y="1309" width="40" height="30" as="geometry" />
        </mxCell>
        <mxCell id="wjAHZ8HdF4BPP9_hHngu-76" value="Нет" style="text;html=1;align=center;verticalAlign=middle;resizable=0;points=[];autosize=1;strokeColor=none;fillColor=none;" parent="1" vertex="1">
          <mxGeometry x="2870" y="1150" width="40" height="30" as="geometry" />
        </mxCell>
        <mxCell id="wjAHZ8HdF4BPP9_hHngu-77" value="Нет" style="text;html=1;align=center;verticalAlign=middle;resizable=0;points=[];autosize=1;strokeColor=none;fillColor=none;" parent="1" vertex="1">
          <mxGeometry x="3160" y="1230" width="40" height="30" as="geometry" />
        </mxCell>
        <mxCell id="wjAHZ8HdF4BPP9_hHngu-81" value="" style="edgeStyle=orthogonalEdgeStyle;rounded=0;orthogonalLoop=1;jettySize=auto;html=1;entryX=0.5;entryY=0;entryDx=0;entryDy=0;" parent="1" source="wjAHZ8HdF4BPP9_hHngu-79" target="wjAHZ8HdF4BPP9_hHngu-80" edge="1">
          <mxGeometry relative="1" as="geometry" />
        </mxCell>
        <mxCell id="wjAHZ8HdF4BPP9_hHngu-85" value="" style="edgeStyle=orthogonalEdgeStyle;rounded=0;orthogonalLoop=1;jettySize=auto;html=1;" parent="1" source="wjAHZ8HdF4BPP9_hHngu-79" target="wjAHZ8HdF4BPP9_hHngu-84" edge="1">
          <mxGeometry relative="1" as="geometry" />
        </mxCell>
        <mxCell id="wjAHZ8HdF4BPP9_hHngu-79" value="i &amp;gt;= j" style="rhombus;whiteSpace=wrap;html=1;" parent="1" vertex="1">
          <mxGeometry x="2692" y="1580" width="178" height="95" as="geometry" />
        </mxCell>
        <mxCell id="wjAHZ8HdF4BPP9_hHngu-89" value="" style="edgeStyle=orthogonalEdgeStyle;rounded=0;orthogonalLoop=1;jettySize=auto;html=1;" parent="1" source="wjAHZ8HdF4BPP9_hHngu-80" target="wjAHZ8HdF4BPP9_hHngu-88" edge="1">
          <mxGeometry relative="1" as="geometry" />
        </mxCell>
        <mxCell id="wjAHZ8HdF4BPP9_hHngu-80" value="Прервать цикл while(true)&lt;div&gt;(break)&lt;/div&gt;" style="rounded=0;whiteSpace=wrap;html=1;" parent="1" vertex="1">
          <mxGeometry x="2990" y="1670" width="176" height="100" as="geometry" />
        </mxCell>
        <mxCell id="wjAHZ8HdF4BPP9_hHngu-82" value="Да" style="text;html=1;align=center;verticalAlign=middle;resizable=0;points=[];autosize=1;strokeColor=none;fillColor=none;" parent="1" vertex="1">
          <mxGeometry x="2880" y="1590" width="40" height="30" as="geometry" />
        </mxCell>
        <mxCell id="wjAHZ8HdF4BPP9_hHngu-87" style="edgeStyle=orthogonalEdgeStyle;rounded=0;orthogonalLoop=1;jettySize=auto;html=1;entryX=0;entryY=0.5;entryDx=0;entryDy=0;" parent="1" source="wjAHZ8HdF4BPP9_hHngu-84" target="wjAHZ8HdF4BPP9_hHngu-60" edge="1">
          <mxGeometry relative="1" as="geometry">
            <Array as="points">
              <mxPoint x="2781" y="1830" />
              <mxPoint x="2600" y="1830" />
              <mxPoint x="2600" y="1048" />
            </Array>
          </mxGeometry>
        </mxCell>
        <mxCell id="wjAHZ8HdF4BPP9_hHngu-84" value="Поменять местами i, j элементы" style="shape=process;whiteSpace=wrap;html=1;backgroundOutline=1;" parent="1" vertex="1">
          <mxGeometry x="2663" y="1719" width="236" height="70" as="geometry" />
        </mxCell>
        <mxCell id="wjAHZ8HdF4BPP9_hHngu-86" value="Нет" style="text;html=1;align=center;verticalAlign=middle;resizable=0;points=[];autosize=1;strokeColor=none;fillColor=none;" parent="1" vertex="1">
          <mxGeometry x="2795" y="1680" width="40" height="30" as="geometry" />
        </mxCell>
        <mxCell id="wjAHZ8HdF4BPP9_hHngu-90" style="edgeStyle=orthogonalEdgeStyle;rounded=0;orthogonalLoop=1;jettySize=auto;html=1;exitX=0.5;exitY=1;exitDx=0;exitDy=0;" parent="1" source="wjAHZ8HdF4BPP9_hHngu-88" edge="1">
          <mxGeometry relative="1" as="geometry">
            <mxPoint x="2640" y="400" as="targetPoint" />
            <Array as="points">
              <mxPoint x="3078" y="1990" />
              <mxPoint x="2520" y="1990" />
              <mxPoint x="2520" y="400" />
              <mxPoint x="2630" y="400" />
            </Array>
          </mxGeometry>
        </mxCell>
        <mxCell id="wjAHZ8HdF4BPP9_hHngu-88" value="добавить в стек новые пары индексов:&lt;div&gt;(low, j), (j + 1, high)&lt;/div&gt;" style="rounded=0;whiteSpace=wrap;html=1;" parent="1" vertex="1">
          <mxGeometry x="2990" y="1810" width="176" height="100" as="geometry" />
        </mxCell>
        <mxCell id="wjAHZ8HdF4BPP9_hHngu-91" value="quick_sort_last" style="text;whiteSpace=wrap;align=center;" parent="1" vertex="1">
          <mxGeometry x="3630" y="45" width="190" height="40" as="geometry" />
        </mxCell>
        <mxCell id="wjAHZ8HdF4BPP9_hHngu-92" value="" style="edgeStyle=orthogonalEdgeStyle;rounded=0;orthogonalLoop=1;jettySize=auto;html=1;" parent="1" source="wjAHZ8HdF4BPP9_hHngu-93" target="wjAHZ8HdF4BPP9_hHngu-95" edge="1">
          <mxGeometry relative="1" as="geometry" />
        </mxCell>
        <mxCell id="wjAHZ8HdF4BPP9_hHngu-93" value="Начало" style="ellipse;whiteSpace=wrap;html=1;" parent="1" vertex="1">
          <mxGeometry x="3665" y="85" width="120" height="80" as="geometry" />
        </mxCell>
        <mxCell id="wjAHZ8HdF4BPP9_hHngu-94" value="" style="edgeStyle=orthogonalEdgeStyle;rounded=0;orthogonalLoop=1;jettySize=auto;html=1;" parent="1" source="wjAHZ8HdF4BPP9_hHngu-95" target="wjAHZ8HdF4BPP9_hHngu-97" edge="1">
          <mxGeometry relative="1" as="geometry" />
        </mxCell>
        <mxCell id="wjAHZ8HdF4BPP9_hHngu-95" value="Инициализируем стек для хранения пар верхнего/нижнего индексов.&lt;div&gt;Помещаем в стек 0 и len-1 индексы&lt;/div&gt;" style="rounded=0;whiteSpace=wrap;html=1;" parent="1" vertex="1">
          <mxGeometry x="3637" y="195" width="176" height="100" as="geometry" />
        </mxCell>
        <mxCell id="wjAHZ8HdF4BPP9_hHngu-96" value="" style="edgeStyle=orthogonalEdgeStyle;rounded=0;orthogonalLoop=1;jettySize=auto;html=1;" parent="1" source="wjAHZ8HdF4BPP9_hHngu-97" target="wjAHZ8HdF4BPP9_hHngu-99" edge="1">
          <mxGeometry relative="1" as="geometry" />
        </mxCell>
        <mxCell id="wjAHZ8HdF4BPP9_hHngu-210" value="" style="edgeStyle=orthogonalEdgeStyle;rounded=0;orthogonalLoop=1;jettySize=auto;html=1;" parent="1" source="wjAHZ8HdF4BPP9_hHngu-97" target="wjAHZ8HdF4BPP9_hHngu-209" edge="1">
          <mxGeometry relative="1" as="geometry" />
        </mxCell>
        <mxCell id="wjAHZ8HdF4BPP9_hHngu-97" value="Стек не пуст" style="rhombus;whiteSpace=wrap;html=1;" parent="1" vertex="1">
          <mxGeometry x="3637" y="357.5" width="178" height="95" as="geometry" />
        </mxCell>
        <mxCell id="wjAHZ8HdF4BPP9_hHngu-98" value="" style="edgeStyle=orthogonalEdgeStyle;rounded=0;orthogonalLoop=1;jettySize=auto;html=1;" parent="1" source="wjAHZ8HdF4BPP9_hHngu-99" target="wjAHZ8HdF4BPP9_hHngu-102" edge="1">
          <mxGeometry relative="1" as="geometry" />
        </mxCell>
        <mxCell id="wjAHZ8HdF4BPP9_hHngu-99" value="Извлекаем из стека пару индексов (high, low)" style="rounded=0;whiteSpace=wrap;html=1;" parent="1" vertex="1">
          <mxGeometry x="3638" y="490" width="176" height="100" as="geometry" />
        </mxCell>
        <mxCell id="wjAHZ8HdF4BPP9_hHngu-100" style="edgeStyle=orthogonalEdgeStyle;rounded=0;orthogonalLoop=1;jettySize=auto;html=1;entryX=0;entryY=0.5;entryDx=0;entryDy=0;" parent="1" source="wjAHZ8HdF4BPP9_hHngu-102" target="wjAHZ8HdF4BPP9_hHngu-97" edge="1">
          <mxGeometry relative="1" as="geometry">
            <Array as="points">
              <mxPoint x="3726" y="775" />
              <mxPoint x="3590" y="775" />
              <mxPoint x="3590" y="405" />
            </Array>
          </mxGeometry>
        </mxCell>
        <mxCell id="wjAHZ8HdF4BPP9_hHngu-101" style="edgeStyle=orthogonalEdgeStyle;rounded=0;orthogonalLoop=1;jettySize=auto;html=1;entryX=0.5;entryY=0;entryDx=0;entryDy=0;" parent="1" source="wjAHZ8HdF4BPP9_hHngu-102" target="wjAHZ8HdF4BPP9_hHngu-106" edge="1">
          <mxGeometry relative="1" as="geometry">
            <mxPoint x="3726" y="855" as="targetPoint" />
            <Array as="points">
              <mxPoint x="3840" y="685" />
              <mxPoint x="3840" y="815" />
              <mxPoint x="3726" y="815" />
            </Array>
          </mxGeometry>
        </mxCell>
        <mxCell id="wjAHZ8HdF4BPP9_hHngu-102" value="low &amp;gt;= high" style="rhombus;whiteSpace=wrap;html=1;" parent="1" vertex="1">
          <mxGeometry x="3637" y="638" width="178" height="95" as="geometry" />
        </mxCell>
        <mxCell id="wjAHZ8HdF4BPP9_hHngu-103" value="Да" style="text;html=1;align=center;verticalAlign=middle;resizable=0;points=[];autosize=1;strokeColor=none;fillColor=none;" parent="1" vertex="1">
          <mxGeometry x="3680" y="733" width="40" height="30" as="geometry" />
        </mxCell>
        <mxCell id="wjAHZ8HdF4BPP9_hHngu-104" value="Нет" style="text;html=1;align=center;verticalAlign=middle;resizable=0;points=[];autosize=1;strokeColor=none;fillColor=none;" parent="1" vertex="1">
          <mxGeometry x="3813" y="655" width="40" height="30" as="geometry" />
        </mxCell>
        <mxCell id="wjAHZ8HdF4BPP9_hHngu-136" value="" style="edgeStyle=orthogonalEdgeStyle;rounded=0;orthogonalLoop=1;jettySize=auto;html=1;" parent="1" source="wjAHZ8HdF4BPP9_hHngu-106" target="wjAHZ8HdF4BPP9_hHngu-135" edge="1">
          <mxGeometry relative="1" as="geometry" />
        </mxCell>
        <mxCell id="wjAHZ8HdF4BPP9_hHngu-106" value="&lt;div&gt;int pivot = array[high_i];&lt;/div&gt;&lt;div&gt;int i = low_i;&lt;/div&gt;" style="rounded=0;whiteSpace=wrap;html=1;align=left;" parent="1" vertex="1">
          <mxGeometry x="3639" y="850" width="176" height="100" as="geometry" />
        </mxCell>
        <mxCell id="wjAHZ8HdF4BPP9_hHngu-107" value="Да" style="text;html=1;align=center;verticalAlign=middle;resizable=0;points=[];autosize=1;strokeColor=none;fillColor=none;" parent="1" vertex="1">
          <mxGeometry x="3730" y="443" width="40" height="30" as="geometry" />
        </mxCell>
        <mxCell id="wjAHZ8HdF4BPP9_hHngu-133" style="edgeStyle=orthogonalEdgeStyle;rounded=0;orthogonalLoop=1;jettySize=auto;html=1;exitX=0.5;exitY=1;exitDx=0;exitDy=0;" parent="1" source="wjAHZ8HdF4BPP9_hHngu-151" edge="1">
          <mxGeometry relative="1" as="geometry">
            <mxPoint x="3590" y="405" as="targetPoint" />
            <mxPoint x="4028" y="1915" as="sourcePoint" />
            <Array as="points">
              <mxPoint x="3725" y="1705" />
              <mxPoint x="3470" y="1705" />
              <mxPoint x="3470" y="405" />
            </Array>
          </mxGeometry>
        </mxCell>
        <mxCell id="wjAHZ8HdF4BPP9_hHngu-138" value="" style="edgeStyle=orthogonalEdgeStyle;rounded=0;orthogonalLoop=1;jettySize=auto;html=1;" parent="1" source="wjAHZ8HdF4BPP9_hHngu-135" target="wjAHZ8HdF4BPP9_hHngu-137" edge="1">
          <mxGeometry relative="1" as="geometry" />
        </mxCell>
        <mxCell id="wjAHZ8HdF4BPP9_hHngu-149" style="edgeStyle=orthogonalEdgeStyle;rounded=0;orthogonalLoop=1;jettySize=auto;html=1;" parent="1" source="wjAHZ8HdF4BPP9_hHngu-135" target="wjAHZ8HdF4BPP9_hHngu-150" edge="1">
          <mxGeometry relative="1" as="geometry">
            <mxPoint x="3727" y="1425" as="targetPoint" />
            <Array as="points">
              <mxPoint x="4150" y="1025" />
              <mxPoint x="4150" y="1445" />
              <mxPoint x="3725" y="1445" />
            </Array>
          </mxGeometry>
        </mxCell>
        <mxCell id="wjAHZ8HdF4BPP9_hHngu-135" value="int j = low_i; j &amp;lt; high_i; ++j" style="shape=hexagon;perimeter=hexagonPerimeter2;whiteSpace=wrap;html=1;fixedSize=1;" parent="1" vertex="1">
          <mxGeometry x="3587" y="1000" width="280" height="50" as="geometry" />
        </mxCell>
        <mxCell id="wjAHZ8HdF4BPP9_hHngu-139" style="edgeStyle=orthogonalEdgeStyle;rounded=0;orthogonalLoop=1;jettySize=auto;html=1;entryX=0;entryY=0.5;entryDx=0;entryDy=0;" parent="1" source="wjAHZ8HdF4BPP9_hHngu-137" target="wjAHZ8HdF4BPP9_hHngu-135" edge="1">
          <mxGeometry relative="1" as="geometry">
            <Array as="points">
              <mxPoint x="3727" y="1245" />
              <mxPoint x="3560" y="1245" />
              <mxPoint x="3560" y="1025" />
            </Array>
          </mxGeometry>
        </mxCell>
        <mxCell id="wjAHZ8HdF4BPP9_hHngu-142" style="edgeStyle=orthogonalEdgeStyle;rounded=0;orthogonalLoop=1;jettySize=auto;html=1;entryX=0.5;entryY=0;entryDx=0;entryDy=0;" parent="1" source="wjAHZ8HdF4BPP9_hHngu-137" target="wjAHZ8HdF4BPP9_hHngu-141" edge="1">
          <mxGeometry relative="1" as="geometry" />
        </mxCell>
        <mxCell id="wjAHZ8HdF4BPP9_hHngu-137" value="j-й элемент &amp;lt;= опорного" style="rhombus;whiteSpace=wrap;html=1;" parent="1" vertex="1">
          <mxGeometry x="3638" y="1095" width="178" height="95" as="geometry" />
        </mxCell>
        <mxCell id="wjAHZ8HdF4BPP9_hHngu-145" value="" style="edgeStyle=orthogonalEdgeStyle;rounded=0;orthogonalLoop=1;jettySize=auto;html=1;" parent="1" source="wjAHZ8HdF4BPP9_hHngu-141" target="wjAHZ8HdF4BPP9_hHngu-144" edge="1">
          <mxGeometry relative="1" as="geometry" />
        </mxCell>
        <mxCell id="wjAHZ8HdF4BPP9_hHngu-141" value="Поменять местами i, j элементы" style="shape=process;whiteSpace=wrap;html=1;backgroundOutline=1;" parent="1" vertex="1">
          <mxGeometry x="3867" y="1170" width="236" height="70" as="geometry" />
        </mxCell>
        <mxCell id="wjAHZ8HdF4BPP9_hHngu-146" style="edgeStyle=orthogonalEdgeStyle;rounded=0;orthogonalLoop=1;jettySize=auto;html=1;" parent="1" source="wjAHZ8HdF4BPP9_hHngu-144" edge="1">
          <mxGeometry relative="1" as="geometry">
            <mxPoint x="3560" y="1245" as="targetPoint" />
            <Array as="points">
              <mxPoint x="3985" y="1375" />
              <mxPoint x="3560" y="1375" />
              <mxPoint x="3560" y="1305" />
            </Array>
          </mxGeometry>
        </mxCell>
        <mxCell id="wjAHZ8HdF4BPP9_hHngu-144" value="i++" style="rounded=0;whiteSpace=wrap;html=1;" parent="1" vertex="1">
          <mxGeometry x="3897" y="1265" width="176" height="100" as="geometry" />
        </mxCell>
        <mxCell id="wjAHZ8HdF4BPP9_hHngu-147" value="Нет" style="text;html=1;align=center;verticalAlign=middle;resizable=0;points=[];autosize=1;strokeColor=none;fillColor=none;" parent="1" vertex="1">
          <mxGeometry x="3730" y="1195" width="40" height="30" as="geometry" />
        </mxCell>
        <mxCell id="wjAHZ8HdF4BPP9_hHngu-148" value="Да" style="text;html=1;align=center;verticalAlign=middle;resizable=0;points=[];autosize=1;strokeColor=none;fillColor=none;" parent="1" vertex="1">
          <mxGeometry x="3814" y="1105" width="40" height="30" as="geometry" />
        </mxCell>
        <mxCell id="wjAHZ8HdF4BPP9_hHngu-152" value="" style="edgeStyle=orthogonalEdgeStyle;rounded=0;orthogonalLoop=1;jettySize=auto;html=1;" parent="1" source="wjAHZ8HdF4BPP9_hHngu-150" target="wjAHZ8HdF4BPP9_hHngu-151" edge="1">
          <mxGeometry relative="1" as="geometry" />
        </mxCell>
        <mxCell id="wjAHZ8HdF4BPP9_hHngu-150" value="Поменять местами i, high элементы" style="shape=process;whiteSpace=wrap;html=1;backgroundOutline=1;" parent="1" vertex="1">
          <mxGeometry x="3607" y="1475" width="236" height="70" as="geometry" />
        </mxCell>
        <mxCell id="wjAHZ8HdF4BPP9_hHngu-151" value="добавить в стек новые пары индексов:&lt;div&gt;(low, i - 1), (i + 1, high)&lt;/div&gt;" style="rounded=0;whiteSpace=wrap;html=1;" parent="1" vertex="1">
          <mxGeometry x="3637" y="1575" width="176" height="100" as="geometry" />
        </mxCell>
        <mxCell id="wjAHZ8HdF4BPP9_hHngu-153" value="" style="edgeStyle=orthogonalEdgeStyle;rounded=0;orthogonalLoop=1;jettySize=auto;html=1;" parent="1" source="wjAHZ8HdF4BPP9_hHngu-154" target="wjAHZ8HdF4BPP9_hHngu-156" edge="1">
          <mxGeometry relative="1" as="geometry" />
        </mxCell>
        <mxCell id="wjAHZ8HdF4BPP9_hHngu-154" value="Начало" style="ellipse;whiteSpace=wrap;html=1;" parent="1" vertex="1">
          <mxGeometry x="4525" y="100" width="120" height="80" as="geometry" />
        </mxCell>
        <mxCell id="wjAHZ8HdF4BPP9_hHngu-155" value="" style="edgeStyle=orthogonalEdgeStyle;rounded=0;orthogonalLoop=1;jettySize=auto;html=1;" parent="1" source="wjAHZ8HdF4BPP9_hHngu-156" target="wjAHZ8HdF4BPP9_hHngu-158" edge="1">
          <mxGeometry relative="1" as="geometry" />
        </mxCell>
        <mxCell id="wjAHZ8HdF4BPP9_hHngu-156" value="Инициализируем стек для хранения пар верхнего/нижнего индексов.&lt;div&gt;Помещаем в стек 0 и len-1 индексы&lt;/div&gt;" style="rounded=0;whiteSpace=wrap;html=1;" parent="1" vertex="1">
          <mxGeometry x="4497" y="210" width="176" height="100" as="geometry" />
        </mxCell>
        <mxCell id="wjAHZ8HdF4BPP9_hHngu-157" value="" style="edgeStyle=orthogonalEdgeStyle;rounded=0;orthogonalLoop=1;jettySize=auto;html=1;" parent="1" source="wjAHZ8HdF4BPP9_hHngu-158" target="wjAHZ8HdF4BPP9_hHngu-160" edge="1">
          <mxGeometry relative="1" as="geometry" />
        </mxCell>
        <mxCell id="wjAHZ8HdF4BPP9_hHngu-213" value="" style="edgeStyle=orthogonalEdgeStyle;rounded=0;orthogonalLoop=1;jettySize=auto;html=1;" parent="1" source="wjAHZ8HdF4BPP9_hHngu-158" target="wjAHZ8HdF4BPP9_hHngu-212" edge="1">
          <mxGeometry relative="1" as="geometry" />
        </mxCell>
        <mxCell id="wjAHZ8HdF4BPP9_hHngu-158" value="Стек не пуст" style="rhombus;whiteSpace=wrap;html=1;" parent="1" vertex="1">
          <mxGeometry x="4497" y="372.5" width="178" height="95" as="geometry" />
        </mxCell>
        <mxCell id="wjAHZ8HdF4BPP9_hHngu-159" value="" style="edgeStyle=orthogonalEdgeStyle;rounded=0;orthogonalLoop=1;jettySize=auto;html=1;" parent="1" source="wjAHZ8HdF4BPP9_hHngu-160" target="wjAHZ8HdF4BPP9_hHngu-163" edge="1">
          <mxGeometry relative="1" as="geometry" />
        </mxCell>
        <mxCell id="wjAHZ8HdF4BPP9_hHngu-160" value="Извлекаем из стека пару индексов (high, low)" style="rounded=0;whiteSpace=wrap;html=1;" parent="1" vertex="1">
          <mxGeometry x="4498" y="505" width="176" height="100" as="geometry" />
        </mxCell>
        <mxCell id="wjAHZ8HdF4BPP9_hHngu-161" style="edgeStyle=orthogonalEdgeStyle;rounded=0;orthogonalLoop=1;jettySize=auto;html=1;entryX=0;entryY=0.5;entryDx=0;entryDy=0;" parent="1" source="wjAHZ8HdF4BPP9_hHngu-163" target="wjAHZ8HdF4BPP9_hHngu-158" edge="1">
          <mxGeometry relative="1" as="geometry">
            <Array as="points">
              <mxPoint x="4586" y="790" />
              <mxPoint x="4450" y="790" />
              <mxPoint x="4450" y="420" />
            </Array>
          </mxGeometry>
        </mxCell>
        <mxCell id="wjAHZ8HdF4BPP9_hHngu-187" style="edgeStyle=orthogonalEdgeStyle;rounded=0;orthogonalLoop=1;jettySize=auto;html=1;entryX=0.5;entryY=0;entryDx=0;entryDy=0;" parent="1" source="wjAHZ8HdF4BPP9_hHngu-163" target="wjAHZ8HdF4BPP9_hHngu-186" edge="1">
          <mxGeometry relative="1" as="geometry">
            <Array as="points">
              <mxPoint x="4780" y="701" />
              <mxPoint x="4780" y="807" />
              <mxPoint x="4585" y="807" />
            </Array>
          </mxGeometry>
        </mxCell>
        <mxCell id="wjAHZ8HdF4BPP9_hHngu-163" value="low &amp;gt;= high" style="rhombus;whiteSpace=wrap;html=1;" parent="1" vertex="1">
          <mxGeometry x="4497" y="653" width="178" height="95" as="geometry" />
        </mxCell>
        <mxCell id="wjAHZ8HdF4BPP9_hHngu-164" value="Да" style="text;html=1;align=center;verticalAlign=middle;resizable=0;points=[];autosize=1;strokeColor=none;fillColor=none;" parent="1" vertex="1">
          <mxGeometry x="4540" y="748" width="40" height="30" as="geometry" />
        </mxCell>
        <mxCell id="wjAHZ8HdF4BPP9_hHngu-165" value="Нет" style="text;html=1;align=center;verticalAlign=middle;resizable=0;points=[];autosize=1;strokeColor=none;fillColor=none;" parent="1" vertex="1">
          <mxGeometry x="4673" y="670" width="40" height="30" as="geometry" />
        </mxCell>
        <mxCell id="wjAHZ8HdF4BPP9_hHngu-168" value="Да" style="text;html=1;align=center;verticalAlign=middle;resizable=0;points=[];autosize=1;strokeColor=none;fillColor=none;" parent="1" vertex="1">
          <mxGeometry x="4590" y="458" width="40" height="30" as="geometry" />
        </mxCell>
        <mxCell id="wjAHZ8HdF4BPP9_hHngu-169" style="edgeStyle=orthogonalEdgeStyle;rounded=0;orthogonalLoop=1;jettySize=auto;html=1;exitX=0.5;exitY=1;exitDx=0;exitDy=0;" parent="1" source="wjAHZ8HdF4BPP9_hHngu-184" edge="1">
          <mxGeometry relative="1" as="geometry">
            <mxPoint x="4450" y="420" as="targetPoint" />
            <mxPoint x="4888" y="1930" as="sourcePoint" />
            <Array as="points">
              <mxPoint x="4563" y="1870" />
              <mxPoint x="4330" y="1870" />
              <mxPoint x="4330" y="420" />
            </Array>
          </mxGeometry>
        </mxCell>
        <mxCell id="wjAHZ8HdF4BPP9_hHngu-182" value="" style="edgeStyle=orthogonalEdgeStyle;rounded=0;orthogonalLoop=1;jettySize=auto;html=1;" parent="1" source="wjAHZ8HdF4BPP9_hHngu-183" target="wjAHZ8HdF4BPP9_hHngu-184" edge="1">
          <mxGeometry relative="1" as="geometry" />
        </mxCell>
        <mxCell id="wjAHZ8HdF4BPP9_hHngu-183" value="Поменять местами i, high элементы" style="shape=process;whiteSpace=wrap;html=1;backgroundOutline=1;" parent="1" vertex="1">
          <mxGeometry x="4445" y="1640" width="236" height="70" as="geometry" />
        </mxCell>
        <mxCell id="wjAHZ8HdF4BPP9_hHngu-184" value="добавить в стек новые пары индексов:&lt;div&gt;(low, i - 1), (i + 1, high)&lt;/div&gt;" style="rounded=0;whiteSpace=wrap;html=1;" parent="1" vertex="1">
          <mxGeometry x="4475" y="1740" width="176" height="100" as="geometry" />
        </mxCell>
        <mxCell id="wjAHZ8HdF4BPP9_hHngu-185" value="quick_sort_median_of_3" style="text;whiteSpace=wrap;align=center;" parent="1" vertex="1">
          <mxGeometry x="4490" y="35" width="190" height="40" as="geometry" />
        </mxCell>
        <mxCell id="wjAHZ8HdF4BPP9_hHngu-190" value="" style="edgeStyle=orthogonalEdgeStyle;rounded=0;orthogonalLoop=1;jettySize=auto;html=1;" parent="1" source="wjAHZ8HdF4BPP9_hHngu-186" target="wjAHZ8HdF4BPP9_hHngu-189" edge="1">
          <mxGeometry relative="1" as="geometry" />
        </mxCell>
        <mxCell id="wjAHZ8HdF4BPP9_hHngu-186" value="получить индекс медианы" style="shape=process;whiteSpace=wrap;html=1;backgroundOutline=1;" parent="1" vertex="1">
          <mxGeometry x="4467" y="865" width="236" height="70" as="geometry" />
        </mxCell>
        <mxCell id="wjAHZ8HdF4BPP9_hHngu-192" value="" style="edgeStyle=orthogonalEdgeStyle;rounded=0;orthogonalLoop=1;jettySize=auto;html=1;" parent="1" source="wjAHZ8HdF4BPP9_hHngu-189" target="wjAHZ8HdF4BPP9_hHngu-191" edge="1">
          <mxGeometry relative="1" as="geometry" />
        </mxCell>
        <mxCell id="wjAHZ8HdF4BPP9_hHngu-189" value="Поменять местами median_i, high элементы" style="shape=process;whiteSpace=wrap;html=1;backgroundOutline=1;" parent="1" vertex="1">
          <mxGeometry x="4467" y="980" width="236" height="70" as="geometry" />
        </mxCell>
        <mxCell id="wjAHZ8HdF4BPP9_hHngu-204" value="" style="edgeStyle=orthogonalEdgeStyle;rounded=0;orthogonalLoop=1;jettySize=auto;html=1;" parent="1" source="wjAHZ8HdF4BPP9_hHngu-191" target="wjAHZ8HdF4BPP9_hHngu-198" edge="1">
          <mxGeometry relative="1" as="geometry" />
        </mxCell>
        <mxCell id="wjAHZ8HdF4BPP9_hHngu-191" value="&lt;div&gt;int pivot = array[high_i];&lt;/div&gt;&lt;div&gt;&lt;span style=&quot;background-color: initial;&quot;&gt;int i = low_i;&lt;/span&gt;&lt;/div&gt;" style="shape=process;whiteSpace=wrap;html=1;backgroundOutline=1;align=left;" parent="1" vertex="1">
          <mxGeometry x="4467" y="1095" width="236" height="70" as="geometry" />
        </mxCell>
        <mxCell id="wjAHZ8HdF4BPP9_hHngu-193" value="" style="edgeStyle=orthogonalEdgeStyle;rounded=0;orthogonalLoop=1;jettySize=auto;html=1;" parent="1" source="wjAHZ8HdF4BPP9_hHngu-198" target="wjAHZ8HdF4BPP9_hHngu-199" edge="1">
          <mxGeometry relative="1" as="geometry" />
        </mxCell>
        <mxCell id="wjAHZ8HdF4BPP9_hHngu-194" style="edgeStyle=orthogonalEdgeStyle;rounded=0;orthogonalLoop=1;jettySize=auto;html=1;entryX=0;entryY=0.5;entryDx=0;entryDy=0;" parent="1" source="wjAHZ8HdF4BPP9_hHngu-199" target="wjAHZ8HdF4BPP9_hHngu-198" edge="1">
          <mxGeometry relative="1" as="geometry">
            <Array as="points">
              <mxPoint x="4586" y="1445" />
              <mxPoint x="4419" y="1445" />
              <mxPoint x="4419" y="1225" />
            </Array>
          </mxGeometry>
        </mxCell>
        <mxCell id="wjAHZ8HdF4BPP9_hHngu-195" style="edgeStyle=orthogonalEdgeStyle;rounded=0;orthogonalLoop=1;jettySize=auto;html=1;entryX=0.5;entryY=0;entryDx=0;entryDy=0;" parent="1" source="wjAHZ8HdF4BPP9_hHngu-199" target="wjAHZ8HdF4BPP9_hHngu-200" edge="1">
          <mxGeometry relative="1" as="geometry" />
        </mxCell>
        <mxCell id="wjAHZ8HdF4BPP9_hHngu-196" value="" style="edgeStyle=orthogonalEdgeStyle;rounded=0;orthogonalLoop=1;jettySize=auto;html=1;" parent="1" source="wjAHZ8HdF4BPP9_hHngu-200" target="wjAHZ8HdF4BPP9_hHngu-201" edge="1">
          <mxGeometry relative="1" as="geometry" />
        </mxCell>
        <mxCell id="wjAHZ8HdF4BPP9_hHngu-197" style="edgeStyle=orthogonalEdgeStyle;rounded=0;orthogonalLoop=1;jettySize=auto;html=1;" parent="1" source="wjAHZ8HdF4BPP9_hHngu-201" edge="1">
          <mxGeometry relative="1" as="geometry">
            <mxPoint x="4419" y="1445" as="targetPoint" />
            <Array as="points">
              <mxPoint x="4844" y="1575" />
              <mxPoint x="4419" y="1575" />
              <mxPoint x="4419" y="1505" />
            </Array>
          </mxGeometry>
        </mxCell>
        <mxCell id="wjAHZ8HdF4BPP9_hHngu-205" style="edgeStyle=orthogonalEdgeStyle;rounded=0;orthogonalLoop=1;jettySize=auto;html=1;exitX=1;exitY=0.5;exitDx=0;exitDy=0;entryX=0.5;entryY=0;entryDx=0;entryDy=0;" parent="1" source="wjAHZ8HdF4BPP9_hHngu-198" target="wjAHZ8HdF4BPP9_hHngu-183" edge="1">
          <mxGeometry relative="1" as="geometry">
            <mxPoint x="4990" y="1610" as="targetPoint" />
            <Array as="points">
              <mxPoint x="5000" y="1225" />
              <mxPoint x="5000" y="1610" />
              <mxPoint x="4563" y="1610" />
            </Array>
          </mxGeometry>
        </mxCell>
        <mxCell id="wjAHZ8HdF4BPP9_hHngu-198" value="int j = low_i; j &amp;lt; high_i; ++j" style="shape=hexagon;perimeter=hexagonPerimeter2;whiteSpace=wrap;html=1;fixedSize=1;" parent="1" vertex="1">
          <mxGeometry x="4446" y="1200" width="280" height="50" as="geometry" />
        </mxCell>
        <mxCell id="wjAHZ8HdF4BPP9_hHngu-199" value="j-й элемент &amp;lt;= опорного" style="rhombus;whiteSpace=wrap;html=1;" parent="1" vertex="1">
          <mxGeometry x="4497" y="1295" width="178" height="95" as="geometry" />
        </mxCell>
        <mxCell id="wjAHZ8HdF4BPP9_hHngu-200" value="Поменять местами i, j элементы" style="shape=process;whiteSpace=wrap;html=1;backgroundOutline=1;" parent="1" vertex="1">
          <mxGeometry x="4726" y="1370" width="236" height="70" as="geometry" />
        </mxCell>
        <mxCell id="wjAHZ8HdF4BPP9_hHngu-201" value="i++" style="rounded=0;whiteSpace=wrap;html=1;" parent="1" vertex="1">
          <mxGeometry x="4756" y="1465" width="176" height="100" as="geometry" />
        </mxCell>
        <mxCell id="wjAHZ8HdF4BPP9_hHngu-202" value="Нет" style="text;html=1;align=center;verticalAlign=middle;resizable=0;points=[];autosize=1;strokeColor=none;fillColor=none;" parent="1" vertex="1">
          <mxGeometry x="4589" y="1395" width="40" height="30" as="geometry" />
        </mxCell>
        <mxCell id="wjAHZ8HdF4BPP9_hHngu-203" value="Да" style="text;html=1;align=center;verticalAlign=middle;resizable=0;points=[];autosize=1;strokeColor=none;fillColor=none;" parent="1" vertex="1">
          <mxGeometry x="4673" y="1305" width="40" height="30" as="geometry" />
        </mxCell>
        <mxCell id="wjAHZ8HdF4BPP9_hHngu-206" value="Конец" style="ellipse;whiteSpace=wrap;html=1;" parent="1" vertex="1">
          <mxGeometry x="2970" y="360" width="120" height="80" as="geometry" />
        </mxCell>
        <mxCell id="wjAHZ8HdF4BPP9_hHngu-208" value="Нет" style="text;html=1;align=center;verticalAlign=middle;resizable=0;points=[];autosize=1;strokeColor=none;fillColor=none;" parent="1" vertex="1">
          <mxGeometry x="2863" y="370" width="40" height="30" as="geometry" />
        </mxCell>
        <mxCell id="wjAHZ8HdF4BPP9_hHngu-209" value="Конец" style="ellipse;whiteSpace=wrap;html=1;" parent="1" vertex="1">
          <mxGeometry x="3900" y="365" width="120" height="80" as="geometry" />
        </mxCell>
        <mxCell id="wjAHZ8HdF4BPP9_hHngu-211" value="Нет" style="text;html=1;align=center;verticalAlign=middle;resizable=0;points=[];autosize=1;strokeColor=none;fillColor=none;" parent="1" vertex="1">
          <mxGeometry x="3813" y="372.5" width="40" height="30" as="geometry" />
        </mxCell>
        <mxCell id="wjAHZ8HdF4BPP9_hHngu-212" value="Конец" style="ellipse;whiteSpace=wrap;html=1;" parent="1" vertex="1">
          <mxGeometry x="4780" y="380" width="120" height="80" as="geometry" />
        </mxCell>
        <mxCell id="wjAHZ8HdF4BPP9_hHngu-214" value="Нет" style="text;html=1;align=center;verticalAlign=middle;resizable=0;points=[];autosize=1;strokeColor=none;fillColor=none;" parent="1" vertex="1">
          <mxGeometry x="4675" y="390" width="40" height="30" as="geometry" />
        </mxCell>
        <mxCell id="wjAHZ8HdF4BPP9_hHngu-218" value="" style="edgeStyle=orthogonalEdgeStyle;rounded=0;orthogonalLoop=1;jettySize=auto;html=1;" parent="1" source="wjAHZ8HdF4BPP9_hHngu-215" target="wjAHZ8HdF4BPP9_hHngu-217" edge="1">
          <mxGeometry relative="1" as="geometry" />
        </mxCell>
        <mxCell id="wjAHZ8HdF4BPP9_hHngu-215" value="Начало" style="ellipse;whiteSpace=wrap;html=1;" parent="1" vertex="1">
          <mxGeometry x="5410" y="100" width="120" height="80" as="geometry" />
        </mxCell>
        <mxCell id="wjAHZ8HdF4BPP9_hHngu-216" value="median_of_3" style="text;whiteSpace=wrap;align=center;" parent="1" vertex="1">
          <mxGeometry x="5375" y="35" width="190" height="40" as="geometry" />
        </mxCell>
        <mxCell id="wjAHZ8HdF4BPP9_hHngu-220" value="" style="edgeStyle=orthogonalEdgeStyle;rounded=0;orthogonalLoop=1;jettySize=auto;html=1;" parent="1" source="wjAHZ8HdF4BPP9_hHngu-217" target="wjAHZ8HdF4BPP9_hHngu-219" edge="1">
          <mxGeometry relative="1" as="geometry" />
        </mxCell>
        <mxCell id="wjAHZ8HdF4BPP9_hHngu-217" value="&lt;div&gt;int mid_i = ((high_i - low_i) &amp;gt;&amp;gt; 2) + low_i;&lt;/div&gt;&lt;div&gt;int low = array[low_i], mid = array[mid_i], high = array[high_i];&lt;/div&gt;" style="rounded=0;whiteSpace=wrap;html=1;align=left;" parent="1" vertex="1">
          <mxGeometry x="5291" y="210" width="358" height="100" as="geometry" />
        </mxCell>
        <mxCell id="wjAHZ8HdF4BPP9_hHngu-222" style="edgeStyle=orthogonalEdgeStyle;rounded=0;orthogonalLoop=1;jettySize=auto;html=1;entryX=0.5;entryY=0;entryDx=0;entryDy=0;" parent="1" source="wjAHZ8HdF4BPP9_hHngu-219" target="wjAHZ8HdF4BPP9_hHngu-221" edge="1">
          <mxGeometry relative="1" as="geometry" />
        </mxCell>
        <mxCell id="wjAHZ8HdF4BPP9_hHngu-247" style="edgeStyle=orthogonalEdgeStyle;rounded=0;orthogonalLoop=1;jettySize=auto;html=1;entryX=0.5;entryY=0;entryDx=0;entryDy=0;" parent="1" source="wjAHZ8HdF4BPP9_hHngu-219" target="wjAHZ8HdF4BPP9_hHngu-237" edge="1">
          <mxGeometry relative="1" as="geometry">
            <Array as="points">
              <mxPoint x="5470" y="470" />
              <mxPoint x="5289" y="470" />
            </Array>
          </mxGeometry>
        </mxCell>
        <mxCell id="wjAHZ8HdF4BPP9_hHngu-219" value="low &amp;gt; mid" style="rhombus;whiteSpace=wrap;html=1;" parent="1" vertex="1">
          <mxGeometry x="5381" y="350" width="178" height="95" as="geometry" />
        </mxCell>
        <mxCell id="wjAHZ8HdF4BPP9_hHngu-225" value="" style="edgeStyle=orthogonalEdgeStyle;rounded=0;orthogonalLoop=1;jettySize=auto;html=1;" parent="1" source="wjAHZ8HdF4BPP9_hHngu-221" target="wjAHZ8HdF4BPP9_hHngu-224" edge="1">
          <mxGeometry relative="1" as="geometry" />
        </mxCell>
        <mxCell id="wjAHZ8HdF4BPP9_hHngu-229" value="" style="edgeStyle=orthogonalEdgeStyle;rounded=0;orthogonalLoop=1;jettySize=auto;html=1;" parent="1" source="wjAHZ8HdF4BPP9_hHngu-221" target="wjAHZ8HdF4BPP9_hHngu-227" edge="1">
          <mxGeometry relative="1" as="geometry" />
        </mxCell>
        <mxCell id="wjAHZ8HdF4BPP9_hHngu-221" value="low &amp;gt; mid" style="rhombus;whiteSpace=wrap;html=1;" parent="1" vertex="1">
          <mxGeometry x="5630" y="420" width="178" height="95" as="geometry" />
        </mxCell>
        <mxCell id="wjAHZ8HdF4BPP9_hHngu-223" value="Да" style="text;html=1;align=center;verticalAlign=middle;resizable=0;points=[];autosize=1;strokeColor=none;fillColor=none;" parent="1" vertex="1">
          <mxGeometry x="5559" y="365" width="40" height="30" as="geometry" />
        </mxCell>
        <mxCell id="wjAHZ8HdF4BPP9_hHngu-224" value="Вернуть mid_i" style="ellipse;whiteSpace=wrap;html=1;" parent="1" vertex="1">
          <mxGeometry x="5860" y="427.5" width="120" height="80" as="geometry" />
        </mxCell>
        <mxCell id="wjAHZ8HdF4BPP9_hHngu-226" value="" style="edgeStyle=orthogonalEdgeStyle;rounded=0;orthogonalLoop=1;jettySize=auto;html=1;" parent="1" source="wjAHZ8HdF4BPP9_hHngu-227" target="wjAHZ8HdF4BPP9_hHngu-228" edge="1">
          <mxGeometry relative="1" as="geometry" />
        </mxCell>
        <mxCell id="wjAHZ8HdF4BPP9_hHngu-234" value="" style="edgeStyle=orthogonalEdgeStyle;rounded=0;orthogonalLoop=1;jettySize=auto;html=1;" parent="1" source="wjAHZ8HdF4BPP9_hHngu-227" target="wjAHZ8HdF4BPP9_hHngu-233" edge="1">
          <mxGeometry relative="1" as="geometry" />
        </mxCell>
        <mxCell id="wjAHZ8HdF4BPP9_hHngu-227" value="low &amp;gt; high" style="rhombus;whiteSpace=wrap;html=1;" parent="1" vertex="1">
          <mxGeometry x="5630" y="560" width="178" height="95" as="geometry" />
        </mxCell>
        <mxCell id="wjAHZ8HdF4BPP9_hHngu-228" value="Вернуть high_i" style="ellipse;whiteSpace=wrap;html=1;" parent="1" vertex="1">
          <mxGeometry x="5860" y="567.5" width="120" height="80" as="geometry" />
        </mxCell>
        <mxCell id="wjAHZ8HdF4BPP9_hHngu-230" value="Да" style="text;html=1;align=center;verticalAlign=middle;resizable=0;points=[];autosize=1;strokeColor=none;fillColor=none;" parent="1" vertex="1">
          <mxGeometry x="5800" y="430" width="40" height="30" as="geometry" />
        </mxCell>
        <mxCell id="wjAHZ8HdF4BPP9_hHngu-231" value="Да" style="text;html=1;align=center;verticalAlign=middle;resizable=0;points=[];autosize=1;strokeColor=none;fillColor=none;" parent="1" vertex="1">
          <mxGeometry x="5800" y="570" width="40" height="30" as="geometry" />
        </mxCell>
        <mxCell id="wjAHZ8HdF4BPP9_hHngu-232" value="Нет" style="text;html=1;align=center;verticalAlign=middle;resizable=0;points=[];autosize=1;strokeColor=none;fillColor=none;" parent="1" vertex="1">
          <mxGeometry x="5730" y="515" width="40" height="30" as="geometry" />
        </mxCell>
        <mxCell id="wjAHZ8HdF4BPP9_hHngu-233" value="Вернуть low_i" style="ellipse;whiteSpace=wrap;html=1;" parent="1" vertex="1">
          <mxGeometry x="5659" y="698" width="120" height="80" as="geometry" />
        </mxCell>
        <mxCell id="wjAHZ8HdF4BPP9_hHngu-235" value="" style="edgeStyle=orthogonalEdgeStyle;rounded=0;orthogonalLoop=1;jettySize=auto;html=1;" parent="1" source="wjAHZ8HdF4BPP9_hHngu-237" target="wjAHZ8HdF4BPP9_hHngu-238" edge="1">
          <mxGeometry relative="1" as="geometry" />
        </mxCell>
        <mxCell id="wjAHZ8HdF4BPP9_hHngu-236" value="" style="edgeStyle=orthogonalEdgeStyle;rounded=0;orthogonalLoop=1;jettySize=auto;html=1;" parent="1" source="wjAHZ8HdF4BPP9_hHngu-237" target="wjAHZ8HdF4BPP9_hHngu-241" edge="1">
          <mxGeometry relative="1" as="geometry" />
        </mxCell>
        <mxCell id="wjAHZ8HdF4BPP9_hHngu-237" value="low &amp;gt; high" style="rhombus;whiteSpace=wrap;html=1;" parent="1" vertex="1">
          <mxGeometry x="5200" y="501.5" width="178" height="95" as="geometry" />
        </mxCell>
        <mxCell id="wjAHZ8HdF4BPP9_hHngu-238" value="Вернуть low_i" style="ellipse;whiteSpace=wrap;html=1;" parent="1" vertex="1">
          <mxGeometry x="5430" y="509" width="120" height="80" as="geometry" />
        </mxCell>
        <mxCell id="wjAHZ8HdF4BPP9_hHngu-239" value="" style="edgeStyle=orthogonalEdgeStyle;rounded=0;orthogonalLoop=1;jettySize=auto;html=1;" parent="1" source="wjAHZ8HdF4BPP9_hHngu-241" target="wjAHZ8HdF4BPP9_hHngu-242" edge="1">
          <mxGeometry relative="1" as="geometry" />
        </mxCell>
        <mxCell id="wjAHZ8HdF4BPP9_hHngu-240" value="" style="edgeStyle=orthogonalEdgeStyle;rounded=0;orthogonalLoop=1;jettySize=auto;html=1;" parent="1" source="wjAHZ8HdF4BPP9_hHngu-241" target="wjAHZ8HdF4BPP9_hHngu-246" edge="1">
          <mxGeometry relative="1" as="geometry" />
        </mxCell>
        <mxCell id="wjAHZ8HdF4BPP9_hHngu-241" value="mid &amp;gt; high" style="rhombus;whiteSpace=wrap;html=1;" parent="1" vertex="1">
          <mxGeometry x="5200" y="641.5" width="178" height="95" as="geometry" />
        </mxCell>
        <mxCell id="wjAHZ8HdF4BPP9_hHngu-242" value="Вернуть high_i" style="ellipse;whiteSpace=wrap;html=1;" parent="1" vertex="1">
          <mxGeometry x="5430" y="649" width="120" height="80" as="geometry" />
        </mxCell>
        <mxCell id="wjAHZ8HdF4BPP9_hHngu-243" value="Да" style="text;html=1;align=center;verticalAlign=middle;resizable=0;points=[];autosize=1;strokeColor=none;fillColor=none;" parent="1" vertex="1">
          <mxGeometry x="5370" y="511.5" width="40" height="30" as="geometry" />
        </mxCell>
        <mxCell id="wjAHZ8HdF4BPP9_hHngu-244" value="Да" style="text;html=1;align=center;verticalAlign=middle;resizable=0;points=[];autosize=1;strokeColor=none;fillColor=none;" parent="1" vertex="1">
          <mxGeometry x="5370" y="651.5" width="40" height="30" as="geometry" />
        </mxCell>
        <mxCell id="wjAHZ8HdF4BPP9_hHngu-245" value="Нет" style="text;html=1;align=center;verticalAlign=middle;resizable=0;points=[];autosize=1;strokeColor=none;fillColor=none;" parent="1" vertex="1">
          <mxGeometry x="5300" y="596.5" width="40" height="30" as="geometry" />
        </mxCell>
        <mxCell id="wjAHZ8HdF4BPP9_hHngu-246" value="Вернуть mid_i" style="ellipse;whiteSpace=wrap;html=1;" parent="1" vertex="1">
          <mxGeometry x="5229" y="779.5" width="120" height="80" as="geometry" />
        </mxCell>
        <mxCell id="wjAHZ8HdF4BPP9_hHngu-248" value="Нет" style="text;html=1;align=center;verticalAlign=middle;resizable=0;points=[];autosize=1;strokeColor=none;fillColor=none;" parent="1" vertex="1">
          <mxGeometry x="5480" y="445" width="40" height="30" as="geometry" />
        </mxCell>
        <mxCell id="wjAHZ8HdF4BPP9_hHngu-249" value="Нет" style="text;html=1;align=center;verticalAlign=middle;resizable=0;points=[];autosize=1;strokeColor=none;fillColor=none;" parent="1" vertex="1">
          <mxGeometry x="5300" y="736.5" width="40" height="30" as="geometry" />
        </mxCell>
        <mxCell id="wjAHZ8HdF4BPP9_hHngu-250" value="Нет" style="text;html=1;align=center;verticalAlign=middle;resizable=0;points=[];autosize=1;strokeColor=none;fillColor=none;" parent="1" vertex="1">
          <mxGeometry x="5730" y="655" width="40" height="30" as="geometry" />
        </mxCell>
        <mxCell id="dVtAiVwXQA2Cqr_-i4Wv-5" value="" style="edgeStyle=orthogonalEdgeStyle;rounded=0;orthogonalLoop=1;jettySize=auto;html=1;" edge="1" parent="1" source="dVtAiVwXQA2Cqr_-i4Wv-1" target="dVtAiVwXQA2Cqr_-i4Wv-3">
          <mxGeometry relative="1" as="geometry" />
        </mxCell>
        <mxCell id="dVtAiVwXQA2Cqr_-i4Wv-1" value="Начало" style="ellipse;whiteSpace=wrap;html=1;" vertex="1" parent="1">
          <mxGeometry x="6660" y="100" width="120" height="80" as="geometry" />
        </mxCell>
        <mxCell id="dVtAiVwXQA2Cqr_-i4Wv-2" value="selection_sort" style="text;whiteSpace=wrap;align=center;" vertex="1" parent="1">
          <mxGeometry x="6625" y="40" width="190" height="40" as="geometry" />
        </mxCell>
        <mxCell id="dVtAiVwXQA2Cqr_-i4Wv-6" value="" style="edgeStyle=orthogonalEdgeStyle;rounded=0;orthogonalLoop=1;jettySize=auto;html=1;" edge="1" parent="1" source="dVtAiVwXQA2Cqr_-i4Wv-3" target="dVtAiVwXQA2Cqr_-i4Wv-4">
          <mxGeometry relative="1" as="geometry" />
        </mxCell>
        <mxCell id="dVtAiVwXQA2Cqr_-i4Wv-21" value="" style="edgeStyle=orthogonalEdgeStyle;rounded=0;orthogonalLoop=1;jettySize=auto;html=1;" edge="1" parent="1" source="dVtAiVwXQA2Cqr_-i4Wv-3" target="dVtAiVwXQA2Cqr_-i4Wv-20">
          <mxGeometry relative="1" as="geometry" />
        </mxCell>
        <mxCell id="dVtAiVwXQA2Cqr_-i4Wv-3" value="int i = 0; i &amp;lt; size; ++i" style="shape=hexagon;perimeter=hexagonPerimeter2;whiteSpace=wrap;html=1;fixedSize=1;" vertex="1" parent="1">
          <mxGeometry x="6580" y="225" width="280" height="50" as="geometry" />
        </mxCell>
        <mxCell id="dVtAiVwXQA2Cqr_-i4Wv-8" value="" style="edgeStyle=orthogonalEdgeStyle;rounded=0;orthogonalLoop=1;jettySize=auto;html=1;" edge="1" parent="1" source="dVtAiVwXQA2Cqr_-i4Wv-4" target="dVtAiVwXQA2Cqr_-i4Wv-7">
          <mxGeometry relative="1" as="geometry" />
        </mxCell>
        <mxCell id="dVtAiVwXQA2Cqr_-i4Wv-4" value="min_i = i" style="rounded=0;whiteSpace=wrap;html=1;" vertex="1" parent="1">
          <mxGeometry x="6632" y="310" width="176" height="100" as="geometry" />
        </mxCell>
        <mxCell id="dVtAiVwXQA2Cqr_-i4Wv-10" value="" style="edgeStyle=orthogonalEdgeStyle;rounded=0;orthogonalLoop=1;jettySize=auto;html=1;" edge="1" parent="1" source="dVtAiVwXQA2Cqr_-i4Wv-7" target="dVtAiVwXQA2Cqr_-i4Wv-9">
          <mxGeometry relative="1" as="geometry" />
        </mxCell>
        <mxCell id="dVtAiVwXQA2Cqr_-i4Wv-17" style="edgeStyle=orthogonalEdgeStyle;rounded=0;orthogonalLoop=1;jettySize=auto;html=1;entryX=0.5;entryY=0;entryDx=0;entryDy=0;" edge="1" parent="1" source="dVtAiVwXQA2Cqr_-i4Wv-7" target="dVtAiVwXQA2Cqr_-i4Wv-18">
          <mxGeometry relative="1" as="geometry">
            <mxPoint x="7060" y="780" as="targetPoint" />
            <Array as="points">
              <mxPoint x="7070" y="470" />
              <mxPoint x="7070" y="780" />
              <mxPoint x="6758" y="780" />
            </Array>
          </mxGeometry>
        </mxCell>
        <mxCell id="dVtAiVwXQA2Cqr_-i4Wv-7" value="int j = i + 1; j &amp;lt; size; ++j" style="shape=hexagon;perimeter=hexagonPerimeter2;whiteSpace=wrap;html=1;fixedSize=1;" vertex="1" parent="1">
          <mxGeometry x="6580" y="445" width="280" height="50" as="geometry" />
        </mxCell>
        <mxCell id="dVtAiVwXQA2Cqr_-i4Wv-12" value="" style="edgeStyle=orthogonalEdgeStyle;rounded=0;orthogonalLoop=1;jettySize=auto;html=1;" edge="1" parent="1" source="dVtAiVwXQA2Cqr_-i4Wv-9" target="dVtAiVwXQA2Cqr_-i4Wv-11">
          <mxGeometry relative="1" as="geometry" />
        </mxCell>
        <mxCell id="dVtAiVwXQA2Cqr_-i4Wv-14" style="edgeStyle=orthogonalEdgeStyle;rounded=0;orthogonalLoop=1;jettySize=auto;html=1;entryX=0;entryY=0.5;entryDx=0;entryDy=0;" edge="1" parent="1" source="dVtAiVwXQA2Cqr_-i4Wv-9" target="dVtAiVwXQA2Cqr_-i4Wv-7">
          <mxGeometry relative="1" as="geometry">
            <Array as="points">
              <mxPoint x="6720" y="690" />
              <mxPoint x="6560" y="690" />
              <mxPoint x="6560" y="470" />
            </Array>
          </mxGeometry>
        </mxCell>
        <mxCell id="dVtAiVwXQA2Cqr_-i4Wv-9" value="j-й элемент &amp;lt; min_i&lt;div&gt;элемент&lt;/div&gt;" style="rhombus;whiteSpace=wrap;html=1;" vertex="1" parent="1">
          <mxGeometry x="6631" y="530" width="178" height="95" as="geometry" />
        </mxCell>
        <mxCell id="dVtAiVwXQA2Cqr_-i4Wv-15" style="edgeStyle=orthogonalEdgeStyle;rounded=0;orthogonalLoop=1;jettySize=auto;html=1;" edge="1" parent="1" source="dVtAiVwXQA2Cqr_-i4Wv-11">
          <mxGeometry relative="1" as="geometry">
            <mxPoint x="6720" y="690" as="targetPoint" />
            <Array as="points">
              <mxPoint x="6948" y="690" />
            </Array>
          </mxGeometry>
        </mxCell>
        <mxCell id="dVtAiVwXQA2Cqr_-i4Wv-11" value="min_i = j" style="rounded=0;whiteSpace=wrap;html=1;" vertex="1" parent="1">
          <mxGeometry x="6860" y="527.5" width="176" height="100" as="geometry" />
        </mxCell>
        <mxCell id="dVtAiVwXQA2Cqr_-i4Wv-13" value="Да" style="text;html=1;align=center;verticalAlign=middle;resizable=0;points=[];autosize=1;strokeColor=none;fillColor=none;" vertex="1" parent="1">
          <mxGeometry x="6808" y="545" width="40" height="30" as="geometry" />
        </mxCell>
        <mxCell id="dVtAiVwXQA2Cqr_-i4Wv-16" value="Нет" style="text;html=1;align=center;verticalAlign=middle;resizable=0;points=[];autosize=1;strokeColor=none;fillColor=none;" vertex="1" parent="1">
          <mxGeometry x="6730" y="626.5" width="40" height="30" as="geometry" />
        </mxCell>
        <mxCell id="dVtAiVwXQA2Cqr_-i4Wv-19" style="edgeStyle=orthogonalEdgeStyle;rounded=0;orthogonalLoop=1;jettySize=auto;html=1;entryX=0;entryY=0.5;entryDx=0;entryDy=0;" edge="1" parent="1" source="dVtAiVwXQA2Cqr_-i4Wv-18" target="dVtAiVwXQA2Cqr_-i4Wv-3">
          <mxGeometry relative="1" as="geometry">
            <mxPoint x="6420" y="480" as="targetPoint" />
            <Array as="points">
              <mxPoint x="6758" y="910" />
              <mxPoint x="6520" y="910" />
              <mxPoint x="6520" y="250" />
            </Array>
          </mxGeometry>
        </mxCell>
        <mxCell id="dVtAiVwXQA2Cqr_-i4Wv-18" value="Поменять i, min_i элементы" style="shape=process;whiteSpace=wrap;html=1;backgroundOutline=1;" vertex="1" parent="1">
          <mxGeometry x="6640" y="805" width="236" height="70" as="geometry" />
        </mxCell>
        <mxCell id="dVtAiVwXQA2Cqr_-i4Wv-20" value="Конец" style="ellipse;whiteSpace=wrap;html=1;" vertex="1" parent="1">
          <mxGeometry x="6900" y="210" width="120" height="80" as="geometry" />
        </mxCell>
      </root>
    </mxGraphModel>
  </diagram>
</mxfile>
